HIERARCHY
ROOT joint_Root
{
	OFFSET 0.0 0.0 0.0
	CHANNELS 6 Xposition Yposition Zposition Zrotation Xrotation Yrotation 
	JOINT Hips
	{
		OFFSET -0.726466 93.3139 -2.00062
		CHANNELS 6 Xposition Yposition Zposition Zrotation Xrotation Yrotation 
		JOINT Spine
		{
			OFFSET 15.7357 0.0 0.0
			CHANNELS 6 Xposition Yposition Zposition Zrotation Xrotation Yrotation 
			JOINT Chest
			{
				OFFSET 8.98455 -0.406207 0.0
				CHANNELS 6 Xposition Yposition Zposition Zrotation Xrotation Yrotation 
				JOINT Neck
				{
					OFFSET 16.3773 0.0 0.0
					CHANNELS 6 Xposition Yposition Zposition Zrotation Xrotation Yrotation 
					JOINT Head
					{
						OFFSET 6.45672 0.0 0.0
						CHANNELS 6 Xposition Yposition Zposition Zrotation Xrotation Yrotation 
						End Site
						{
							OFFSET 0.0 0.0 0.0
						}
					}
				}
				JOINT Shoulder_L
				{
					OFFSET 12.9942 -0.242716 4.98039
					CHANNELS 6 Xposition Yposition Zposition Zrotation Xrotation Yrotation 
					JOINT UpperArm_L
					{
						OFFSET 5.34809 0.0 0.0
						CHANNELS 6 Xposition Yposition Zposition Zrotation Xrotation Yrotation 
						JOINT LowerArm_L
						{
							OFFSET 24.3286 1.87007e-05 0.0
							CHANNELS 6 Xposition Yposition Zposition Zrotation Xrotation Yrotation 
							JOINT Hand_L
							{
								OFFSET 22.2916 0.0 0.0
								CHANNELS 6 Xposition Yposition Zposition Zrotation Xrotation Yrotation 
								End Site
								{
									OFFSET 0.0 0.0 0.0
								}
							}
						}
					}
				}
				JOINT Shoulder_R
				{
					OFFSET 12.9945 -0.242716 -4.98039
					CHANNELS 6 Xposition Yposition Zposition Zrotation Xrotation Yrotation 
					JOINT UpperArm_R
					{
						OFFSET -5.34813 0.0 0.0
						CHANNELS 6 Xposition Yposition Zposition Zrotation Xrotation Yrotation 
						JOINT LowerArm_R
						{
							OFFSET -24.3289 0.000322201 0.0
							CHANNELS 6 Xposition Yposition Zposition Zrotation Xrotation Yrotation 
							JOINT Hand_R
							{
								OFFSET -22.2915 -0.000108084 0.0
								CHANNELS 6 Xposition Yposition Zposition Zrotation Xrotation Yrotation 
								End Site
								{
									OFFSET 0.0 0.0 0.0
								}
							}
						}
					}
				}
			}
		}
		JOINT UpperLeg_L
		{
			OFFSET -2.19248 -6.46944 0.0
			CHANNELS 6 Xposition Yposition Zposition Zrotation Xrotation Yrotation 
			JOINT LowerLeg_L
			{
				OFFSET 39.0811 0.0 -1.23785e-05
				CHANNELS 6 Xposition Yposition Zposition Zrotation Xrotation Yrotation 
				JOINT Foot_L
				{
					OFFSET 40.9854 0.0 -1.26872e-05
					CHANNELS 6 Xposition Yposition Zposition Zrotation Xrotation Yrotation 
					JOINT Toes_L
					{
						OFFSET 11.7543 0.0 0.0
						CHANNELS 6 Xposition Yposition Zposition Zrotation Xrotation Yrotation 
						End Site
						{
							OFFSET 0.0 0.0 0.0
						}
					}
				}
			}
		}
		JOINT UpperLeg_R
		{
			OFFSET -2.19251 6.46944 0.0
			CHANNELS 6 Xposition Yposition Zposition Zrotation Xrotation Yrotation 
			JOINT LowerLeg_R
			{
				OFFSET -39.0811 -0.00228153 -0.0401928
				CHANNELS 6 Xposition Yposition Zposition Zrotation Xrotation Yrotation 
				JOINT Foot_R
				{
					OFFSET -40.9854 0.0 0.0
					CHANNELS 6 Xposition Yposition Zposition Zrotation Xrotation Yrotation 
					JOINT Toes_R
					{
						OFFSET -11.7543 0.0 0.0
						CHANNELS 6 Xposition Yposition Zposition Zrotation Xrotation Yrotation 
						End Site
						{
							OFFSET 0.0 0.0 0.0
						}
					}
				}
			}
		}
	}
}
MOTION
Frames:	4
Frame Time:	0.0333333
0.000000 0.000000 0.000000 0.000000 0.000000 -0.000000 -1.276010 92.008800 -1.974560 87.403900 -1.750440 5.653300 15.735700 0.000005 -0.000001 97.573500 85.709500 -98.051800 8.984550 -0.406207 -0.000000 0.745331 1.159840 -0.963399 16.377300 -0.000001 -0.000001 4.398080 -2.170390 3.340750 6.456720 -0.000001 -0.000000 5.225570 -3.741560 -2.509030 12.994200 -0.242716 4.980390 -88.938600 -3.049450 -70.798700 5.348090 -0.000007 -0.000001 26.217900 75.061000 -72.719400 24.328600 0.000019 0.000005 12.407200 0.176233 -89.199100 22.291600 -0.000001 0.000005 42.965000 5.574170 -32.336600 12.994500 -0.242716 -4.980390 90.672600 -1.869940 -70.213000 -5.348130 -0.000001 -0.000004 -56.424000 -43.446300 -94.727700 -24.328900 0.000322 -0.000009 9.195220 4.330970 -64.994100 -22.291500 -0.000108 -0.000004 20.871900 5.387650 -2.540420 -2.192480 -6.469440 -0.000000 -167.848000 -19.848600 -1.411720 39.081100 -0.000007 -0.000012 -0.178704 0.414730 23.311100 40.985400 -0.000006 -0.000013 -5.973700 0.936505 -63.593400 11.754300 -0.000000 0.000003 -0.000085 -0.000896 -16.612000 -2.192510 6.469440 -0.000001 173.902000 23.989700 -178.922000 -39.081100 -0.002282 -0.040193 -0.025100 0.076170 20.461800 -40.985400 0.000008 0.000006 -2.267200 3.832350 -63.329100 -11.754300 -0.000006 -0.000006 -0.003896 -0.050356 -18.621400
0.000000 0.000000 0.000000 0.000000 0.000000 -0.000000 -1.263830 92.019700 -1.974690 87.411200 -1.806470 5.639410 15.735700 0.000005 -0.000001 97.382700 85.692900 -97.863000 8.984550 -0.406207 -0.000000 0.781899 1.135750 -0.967707 16.377300 -0.000001 -0.000001 4.505800 -2.177490 3.401430 6.456720 -0.000001 -0.000000 5.306970 -3.762710 -2.536950 12.994200 -0.242716 4.980390 -88.946200 -3.026500 -70.792100 5.348090 -0.000007 -0.000001 25.695400 75.148700 -72.169200 24.328600 0.000019 0.000005 12.268600 0.165544 -89.238900 22.291600 -0.000001 0.000005 42.793900 5.571230 -32.489500 12.994500 -0.242716 -4.980390 90.679200 -1.878090 -70.114000 -5.348130 -0.000001 -0.000004 -56.521500 -43.472100 -94.920400 -24.328900 0.000322 -0.000009 9.236520 4.338870 -65.054200 -22.291500 -0.000108 -0.000004 20.887300 5.387900 -2.548580 -2.192480 -6.469440 -0.000000 -167.852000 -19.936700 -1.377290 39.081100 -0.000007 -0.000012 -0.178897 0.416665 23.236700 40.985400 -0.000006 -0.000013 -5.962770 0.953933 -63.553500 11.754300 -0.000000 0.000003 -0.000096 -0.000990 -16.615600 -2.192510 6.469440 -0.000001 173.925000 23.938600 -178.936000 -39.081100 -0.002282 -0.040193 -0.019608 0.061561 20.427800 -40.985400 0.000008 0.000006 -2.143650 3.811290 -63.317900 -11.754300 -0.000006 -0.000006 -0.004049 -0.051945 -18.686100
0.000000 0.000000 0.000000 0.000000 0.000000 -0.000000 -1.256550 92.008000 -1.977550 87.396300 -1.849830 5.626180 15.735700 0.000005 -0.000001 97.207200 85.673200 -97.682300 8.984550 -0.406207 -0.000000 0.824227 1.114040 -0.957578 16.377300 -0.000001 -0.000001 4.592590 -2.184840 3.469460 6.456720 -0.000001 -0.000000 5.423260 -3.732930 -2.601580 12.994200 -0.242716 4.980390 -88.926400 -3.091550 -70.838900 5.348090 -0.000007 -0.000001 25.117100 75.276000 -71.693000 24.328600 0.000019 0.000005 12.347700 0.182694 -89.165500 22.291600 -0.000001 0.000005 42.899500 5.571890 -32.455700 12.994500 -0.242716 -4.980390 90.679000 -1.866300 -70.003000 -5.348130 -0.000001 -0.000004 -56.584600 -43.547100 -95.086300 -24.328900 0.000322 -0.000009 9.049660 4.249220 -65.055300 -22.291500 -0.000108 -0.000004 20.708100 5.391530 -2.664100 -2.192480 -6.469440 -0.000000 -167.851000 -19.888400 -1.427700 39.081100 -0.000007 -0.000012 -0.179584 0.416418 23.328700 40.985400 -0.000006 -0.000013 -5.972940 0.902366 -63.614800 11.754300 -0.000000 0.000003 -0.000106 -0.001081 -16.619000 -2.192510 6.469440 -0.000001 173.921000 23.910400 -178.970000 -39.081100 -0.002282 -0.040193 -0.024381 0.074258 20.457900 -40.985400 0.000008 0.000006 -2.281470 3.850270 -63.309900 -11.754300 -0.000006 -0.000006 -0.004040 -0.051852 -18.682300
0.000000 0.000000 0.000000 0.000000 0.000000 -0.000000 -1.221690 92.018100 -1.985220 87.408800 -1.918200 5.624910 15.735700 0.000005 -0.000001 97.155200 85.656000 -97.628600 8.984550 -0.406207 -0.000000 0.859271 1.110270 -0.954459 16.377300 -0.000001 -0.000001 4.737910 -2.160970 3.486840 6.456720 -0.000001 -0.000000 5.474940 -3.718240 -2.556940 12.994200 -0.242716 4.980390 -88.919300 -3.110790 -70.831300 5.348090 -0.000007 -0.000001 24.796000 75.321800 -71.421000 24.328600 0.000019 0.000005 12.398900 0.197970 -89.099600 22.291600 -0.000001 0.000005 42.929400 5.571730 -32.464200 12.994500 -0.242716 -4.980390 90.674600 -1.848220 -69.944900 -5.348130 -0.000001 -0.000004 -56.538400 -43.622900 -95.089800 -24.328900 0.000322 -0.000009 9.026470 4.223770 -65.129500 -22.291500 -0.000108 -0.000004 20.672700 5.390000 -2.615370 -2.192480 -6.469440 -0.000000 -167.873000 -19.961600 -1.390330 39.081100 -0.000007 -0.000012 -0.180131 0.418854 23.270700 40.985400 -0.000006 -0.000013 -5.962070 0.856772 -63.587300 11.754300 -0.000000 0.000003 -0.000094 -0.000976 -16.615000 -2.192510 6.469440 -0.000001 173.901000 23.890600 -178.960000 -39.081100 -0.002282 -0.040193 -0.022193 0.068603 20.400200 -40.985400 0.000008 0.000006 -2.241050 3.898110 -63.266800 -11.754300 -0.000006 -0.000006 -0.004093 -0.052405 -18.704900
